# xmcd
#
# Track frame offsets:
#	182
#	14215
#	28822
#	43362
#	64695
#	78142
#	93907
#	108732
#	122600
#	137392
#	150680
#	177045
#
# Disc length: 2579
#
# Revision: 3
# Processed by: cddbd v1.5.1PL0 Copyright (c) Steve Scherf et al.
# Submitted via: CDValet v3.31 - Copyright (c) 1997 Greg Leichner
# Normalized: r2:DSETVAR1
#
DISCID=9a0a110c
DTITLE=Various Artist - Soul Hits Of The '70s Didn't It Blow Your Mind, Vol. 2
DYEAR=1900
DGENRE=
TTITLE0=The Originals - The Bells
TTITLE1=The Friends Of Distinction - Love Or Let me Be Lonely
TTITLE2=The Honey Cone - Girls It Ain't Easy
TTITLE3=El Chicano - Viva Tirado-Part1
TTITLE4=Tyrone Davis - Turn Back The Hands Of Time
TTITLE5=The Moments - Love On A Two-Way Street
TTITLE6=Les McCann and Eddie Harris - Compared To What
TTITLE7=Charles Wright and The Watts 103rd Street - Love Land
TTITLE8=The Five Stairsteps - OOH Child
TTITLE9=Freda Payne - Band Of Gold
TTITLE10=Pacific Gas and Electric - Are You Ready
TTITLE11=The Three Degrees - Maybe
EXTD=
EXTT0=
EXTT1=
EXTT2=
EXTT3=
EXTT4=
EXTT5=
EXTT6=
EXTT7=
EXTT8=
EXTT9=
EXTT10=
EXTT11=
PLAYORDER=
